<svg width="80" height="64" fill="none" xmlns="http://www.w3.org/2000/svg"><path d="M72 19.666V59H8V19.666L40 0l32 19.666Z" fill="#FF6A4D"/><path d="M72 19.666V59H40V0l32 19.666Z" fill="#E64D2E"/><path d="M0 20 8.206 0H40l-8.206 20H0Z" fill="#FFDF40"/><path d="M80 20 71.794 0H40l8.206 20H80Z" fill="#FCBE00"/><path d="M19 43h4v5h-4v-5Z" fill="#FFDA2D"/><path d="M78 46.662c0 9.467-7.675 17.142-17.142 17.142-9.469 0-17.144-7.675-17.144-17.142 0-9.47 7.675-17.144 17.144-17.144C70.325 29.518 78 37.193 78 46.662Z" fill="#83E470"/><path d="M78 46.662c0 9.467-7.675 17.142-17.142 17.142V29.518C70.325 29.518 78 37.193 78 46.662Z" fill="#01B763"/><path d="m69.828 43.885-8.97 8.97-1.555 1.555-7.417-7.417 3.315-3.314 4.102 4.101 1.555-1.554 5.654-5.655 3.316 3.314Z" fill="#F3FDFF"/><path d="m69.828 43.885-8.97 8.97v-6.63l5.655-5.654 3.315 3.314Z" fill="#D7F3F7"/></svg>