<svg width="80" height="80" fill="none" xmlns="http://www.w3.org/2000/svg"><path d="M62.656 0H7.031C3.155 0 0 3.155 0 7.031V45c0 3.877 3.155 7.031 7.031 7.031h55.625c3.877 0 7.032-3.154 7.032-7.031V7.031C69.688 3.155 66.532 0 62.656 0Z" fill="#F39058"/><path d="M69.688 7.031V45c0 3.877-3.155 7.031-7.032 7.031h-17.5V0h17.5c3.877 0 7.032 3.155 7.032 7.031Z" fill="#D26628"/><path d="M10.313 26.25v28.906c0 3.877 3.154 7.032 7.03 7.032H72.97c3.876 0 7.031-3.155 7.031-7.032V26.25H10.312Z" fill="#FF6A4D"/><path d="M80 26.25v28.906c0 3.877-3.155 7.032-7.031 7.032H45.156V26.25H80Z" fill="#E64D2E"/><path d="M27.656 52.344h-5a2.344 2.344 0 0 1 0-4.688h5a2.344 2.344 0 0 1 0 4.688Zm15 0h-5a2.344 2.344 0 0 1 0-4.688h5a2.344 2.344 0 0 1 0 4.688Z" fill="#F2F2FC"/><path d="M80 17.188v9.062H10.312v-9.063c0-3.876 3.155-7.03 7.032-7.03h55.625c3.876 0 7.031 3.154 7.031 7.03Z" fill="#FB9581"/><path d="M80 17.188v9.062H45.156V10.156H72.97c3.876 0 7.031 3.155 7.031 7.031Z" fill="#FF6A4D"/><path d="M40 33.594H22.5a2.344 2.344 0 0 1-2.344-2.344v-10a2.344 2.344 0 0 1 2.344-2.344H40a2.344 2.344 0 0 1 2.344 2.344v10A2.344 2.344 0 0 1 40 33.594Z" fill="#FFDF40"/><path d="M77.656 39.063h-.237a24.672 24.672 0 0 1-15.763-5.707 2.336 2.336 0 0 0-3 0 24.672 24.672 0 0 1-15.762 5.706h-.238a2.345 2.345 0 0 0-2.343 2.344v13.05a26.27 26.27 0 0 0 5.337 15.94 26.273 26.273 0 0 0 13.863 9.513 2.314 2.314 0 0 0 1.287 0 26.273 26.273 0 0 0 13.862-9.512A26.27 26.27 0 0 0 80 54.457v-13.05a2.345 2.345 0 0 0-2.344-2.344Z" fill="#83E470"/><path d="M80 41.406v13.05a26.27 26.27 0 0 1-5.338 15.94A26.273 26.273 0 0 1 60.8 79.91c-.21.061-.427.091-.644.091V32.812c.533 0 1.066.182 1.5.544a24.672 24.672 0 0 0 15.763 5.706h.237A2.345 2.345 0 0 1 80 41.407Z" fill="#01B763"/><path d="m71.502 52.283-9.688 9.687a2.337 2.337 0 0 1-1.658.686c-.6 0-1.2-.228-1.657-.686l-5-5a2.347 2.347 0 0 1 0-3.315 2.347 2.347 0 0 1 3.315 0l3.342 3.343 8.03-8.03a2.347 2.347 0 0 1 3.316 0c.914.915.914 2.4 0 3.315Z" fill="#F2F2FC"/><path d="m71.501 52.283-9.687 9.687a2.337 2.337 0 0 1-1.658.686v-5.658l8.03-8.03a2.347 2.347 0 0 1 3.315 0c.915.915.915 2.4 0 3.315Z" fill="#D6D6F2"/></svg>