<svg width="36" height="36" fill="none" xmlns="http://www.w3.org/2000/svg"><circle cx="18" cy="18" r="18" fill="url(#a)"/><path d="m25.254 16.213-11.135-5.074c-.733-.334-1.616-.046-1.971.645-.181.352-.197.76-.042 1.123L13.846 17H26a1.41 1.41 0 0 0-.746-.787ZM13.845 19l-1.74 4.093c-.302.715.069 1.524.828 1.808a1.562 1.562 0 0 0 1.186-.04l11.135-5.074A1.41 1.41 0 0 0 26 19H13.845Z" fill="#fff"/><defs><linearGradient id="a" x1="18" y1="0" x2="18" y2="36" gradientUnits="userSpaceOnUse"><stop stop-color="#F6762C"/><stop offset="1" stop-color="#C65311"/></linearGradient></defs></svg>