<svg width="40" height="40" fill="none" xmlns="http://www.w3.org/2000/svg"><circle cx="20" cy="20" r="20" fill="#F6762C"/><path d="M18.594 20a1.406 1.406 0 1 0 2.812 0 1.406 1.406 0 0 0-2.812 0Z" fill="#fff"/><path d="M17.625 15.75h4.75c1.034 0 1.875.841 1.875 1.875v4.75a1.877 1.877 0 0 1-1.875 1.875h-4.75a1.877 1.877 0 0 1-1.875-1.875v-4.75c0-1.034.841-1.875 1.875-1.875ZM20 22.344A2.346 2.346 0 0 0 22.344 20 2.346 2.346 0 0 0 20 17.656 2.346 2.346 0 0 0 17.656 20 2.346 2.346 0 0 0 20 22.344Zm-2.688-4.563a.469.469 0 1 0 0-.937.469.469 0 0 0 0 .937Z" fill="#fff"/><path d="M16.219 12h7.562A4.224 4.224 0 0 1 28 16.219v7.562A4.224 4.224 0 0 1 23.781 28H16.22A4.224 4.224 0 0 1 12 23.781V16.22A4.224 4.224 0 0 1 16.219 12Zm-1.407 10.375a2.816 2.816 0 0 0 2.813 2.813h4.75a2.816 2.816 0 0 0 2.813-2.813v-4.75a2.816 2.816 0 0 0-2.813-2.813h-4.75a2.816 2.816 0 0 0-2.813 2.813v4.75Z" fill="#fff"/></svg>