<svg width="40" height="40" fill="none" xmlns="http://www.w3.org/2000/svg"><circle cx="20" cy="20" r="20" fill="#F6762C"/><path d="M20.323 21.577a.496.496 0 0 1-.702 0l-2.256-2.257a.497.497 0 0 1 0-.702l.4-.401-1.178-1.178-.965.965a.834.834 0 0 0 0 1.178l4.137 4.138a.827.827 0 0 0 .59.242.827.827 0 0 0 .589-.242l.965-.965-1.178-1.179-.402.401Z" fill="#fff"/><path d="M27.51 17.983a5.94 5.94 0 0 0-1.756-4.226A5.94 5.94 0 0 0 21.528 12h-3.545a5.94 5.94 0 0 0-4.226 1.757A5.94 5.94 0 0 0 12 17.983v2.786a5.93 5.93 0 0 0 1.088 3.43 6.004 6.004 0 0 0 2.456 2.03v1.601c0 .828.463 1.121.86 1.121.284 0 .567-.14.843-.415l1.783-1.784h2.498a5.94 5.94 0 0 0 4.226-1.757 5.94 5.94 0 0 0 1.757-4.226v-2.786Zm-4.553 4.723-1.317 1.316a1.813 1.813 0 0 1-1.291.533c-.49 0-.948-.189-1.292-.533l-4.137-4.137a1.829 1.829 0 0 1 0-2.583l1.316-1.317a.496.496 0 0 1 .703 0l1.88 1.88a.497.497 0 0 1 0 .703l-.4.401 1.554 1.555.4-.402a.497.497 0 0 1 .703 0l1.88 1.881a.497.497 0 0 1 0 .703Zm-3.578-5.885c0-.274.223-.496.497-.496 1.72 0 3.12 1.4 3.12 3.12a.497.497 0 1 1-.993 0 2.13 2.13 0 0 0-2.127-2.127.497.497 0 0 1-.497-.497Zm5.249 3.121a.497.497 0 0 1-.497-.497 4.227 4.227 0 0 0-1.246-3.009 4.228 4.228 0 0 0-3.01-1.246.497.497 0 0 1 0-.993c1.403 0 2.72.546 3.712 1.537a5.213 5.213 0 0 1 1.537 3.711.497.497 0 0 1-.496.497Z" fill="#fff"/></svg>