<svg width="80" height="64" viewBox="0 0 80 64" fill="none" xmlns="http://www.w3.org/2000/svg">
<path d="M72 19.6661V59H8V19.6661L40.0009 0L72 19.6661Z" fill="#FF6A4D"/>
<path d="M72 19.6661V59H40V0L72 19.6661Z" fill="#E64D2E"/>
<path d="M0 20L8.20576 0H40L31.7942 20H0Z" fill="#FFDF40"/>
<path d="M80 20L71.7942 0H40L48.2058 20H80Z" fill="#FCBE00"/>
<path d="M19 43H23V48H19V43Z" fill="#FFDA2D"/>
<path d="M78.0003 46.6616C78.0003 56.1288 70.3253 63.8038 60.8581 63.8038C51.3894 63.8038 43.7144 56.1288 43.7144 46.6616C43.7144 37.1929 51.3894 29.5179 60.8581 29.5179C70.3253 29.5179 78.0003 37.1927 78.0003 46.6616Z" fill="#83E470"/>
<path d="M78.0001 46.6616C78.0001 56.1288 70.3251 63.8038 60.8579 63.8038V29.5179C70.3251 29.5179 78.0001 37.1927 78.0001 46.6616Z" fill="#01B763"/>
<path d="M69.8279 43.885L60.8576 52.8552L59.3029 54.4101L51.8857 46.9927L55.2014 43.6786L59.3029 47.7802L60.8576 46.2257L66.5123 40.571L69.8279 43.885Z" fill="#F3FDFF"/>
<path d="M69.8282 43.885L60.8579 52.8552V46.2257L66.5126 40.571L69.8282 43.885Z" fill="#D7F3F7"/>
</svg>
