<svg width="80" height="80" viewBox="0 0 80 80" fill="none" xmlns="http://www.w3.org/2000/svg">
<path d="M35.3125 0C31.4353 0 28.2812 3.15406 28.2812 7.03125V9.53125L32.9688 11.875H35.3125H37.6562L42.3438 9.53125V7.03125C42.3438 3.15406 39.1897 0 35.3125 0Z" fill="#FF6A4D"/>
<path d="M42.3438 9.53125V7.03125C42.3438 3.15406 39.1897 0 35.3125 0V11.875H37.6562L42.3438 9.53125Z" fill="#E64D2E"/>
<path d="M0 70.625C1.08609 75.9737 6.04938 80 11.7188 80C17.3881 80 22.5077 75.9737 23.5938 70.625L18.5019 68.2812H3.25375L0 70.625Z" fill="#474F54"/>
<path d="M11.7188 75.3125C7.84156 75.3125 4.6875 72.1584 4.6875 68.2812C4.6875 64.4041 7.84156 61.25 11.7188 61.25C15.5959 61.25 18.9062 64.4041 18.9062 68.2812C18.9062 72.1584 15.5959 75.3125 11.7188 75.3125Z" fill="#F2F9FF"/>
<path d="M23.5938 28.4375H9.375L4.6875 33.125V47.1875L9.375 49.5312H23.5938L30.625 47.1875V34.5312L28.2812 33.125L23.5938 28.4375Z" fill="#FF9100"/>
<path d="M4.6875 23.75V33.125H28.2812L30.625 31.9117L28.2812 30.7812V23.75H4.6875Z" fill="#FFDF40"/>
<path d="M37.6562 70.625H0V68.2812C0 59.2203 7.50156 51.875 16.5625 51.875L20.4688 49.5312H42.3438V66.7188L37.6562 70.625Z" fill="#FF6A4D"/>
<path d="M0 47.1875H32.9688V51.875H0V47.1875Z" fill="#32393F"/>
<path d="M49.375 59.0467V67.8592L47.0312 70.625H37.6562V51.875H32.9688C30.3906 51.875 28.2812 49.7656 28.2812 47.1875V35.4688H42.3438V42.5C44.9219 42.5 47.0312 44.6094 47.0312 47.1875V56.5625L49.375 59.0467Z" fill="#575F64"/>
<path d="M49.375 59.0467V67.8592L47.0312 70.625H37.6562V51.875H35.3125V35.4688H42.3438V42.5C44.9219 42.5 47.0312 44.6094 47.0312 47.1875V56.5625L49.375 59.0467Z" fill="#474F54"/>
<path d="M42.3438 33.125V30.7812C42.3438 26.9041 39.1897 23.75 35.3125 23.75C31.4353 23.75 28.2812 26.9041 28.2812 30.7812V35.4688C28.2812 39.352 31.4292 42.5 35.3125 42.5H54.2188C58.102 42.5 61.25 39.352 61.25 35.4688V33.125H42.3438Z" fill="#FF6A4D"/>
<path d="M61.25 35.4688V33.125H42.3438V30.7812C42.3438 26.9041 39.1897 23.75 35.3125 23.75V42.5H54.2188C58.102 42.5 61.25 39.352 61.25 35.4688Z" fill="#E64D2E"/>
<path d="M37.6562 11.875H35.3125H32.9688L28.2812 14.2188V16.5625C28.2812 20.4397 31.4353 23.75 35.3125 23.75C39.1897 23.75 42.3438 20.4397 42.3438 16.5625V14.2188L37.6562 11.875Z" fill="#FFE1BA"/>
<path d="M42.3438 16.5625V14.2188L37.6562 11.875H35.3125V23.75C39.1897 23.75 42.3438 20.4397 42.3438 16.5625Z" fill="#FFBFAB"/>
<path d="M35.3125 9.53125H28.2812V14.2188H35.3125H47.0312V9.53125H35.3125Z" fill="#474F54"/>
<path d="M35.3125 9.53125H47.0312V14.2188H35.3125V9.53125Z" fill="#32393F"/>
<path d="M67.7091 47.7116C67.4505 45.8873 66.9377 42.2939 65.9147 35.1367L56.5625 30.7812V49.5312C56.5625 53.2286 53.3773 56.5625 49.375 56.5625H47.0312V70.625H51.7188H75.3125L80 68.2812V63.5938C80 56.0956 74.8273 49.5588 67.7091 47.7116Z" fill="#E64D2E"/>
<path d="M70.625 37.8125H63.5938C59.7166 37.8125 56.5625 34.6584 56.5625 30.7812C56.5625 26.9041 59.7166 23.75 63.5938 23.75H70.625V37.8125Z" fill="#FF6A4D"/>
<path d="M68.9856 56.6338L68.3041 59.2381L64.343 57.2924C59.8227 58.9191 56.5625 63.2078 56.5625 68.2813C56.5625 74.7427 61.8198 80 68.2812 80C74.7427 80 80 74.7427 80 68.2813C80 62.0611 75.1136 57.0063 68.9856 56.6338Z" fill="#32393F"/>
<path d="M68.2812 61.25C64.4041 61.25 61.25 64.4041 61.25 68.2812C61.25 72.1584 64.4041 75.3125 68.2812 75.3125C72.1584 75.3125 75.3125 72.1584 75.3125 68.2812C75.3125 64.4041 72.1584 61.25 68.2812 61.25Z" fill="#DFE7F4"/>
<path d="M70.6021 67.9494L68.9857 56.6337C68.7477 56.6194 68.5224 56.5625 68.2811 56.5625C66.8933 56.5625 65.5794 56.8475 64.343 57.2923L65.9604 68.6131L70.6021 67.9494Z" fill="#C7CFE1"/>
</svg>
