<svg width="80" height="80" viewBox="0 0 80 80" fill="none" xmlns="http://www.w3.org/2000/svg">
<path d="M62.6562 0H7.03125C3.15469 0 0 3.15469 0 7.03125V45C0 48.8766 3.15469 52.0312 7.03125 52.0312H62.6562C66.5328 52.0312 69.6875 48.8766 69.6875 45V7.03125C69.6875 3.15469 66.5328 0 62.6562 0Z" fill="#F39058"/>
<path d="M69.6875 7.03125V45C69.6875 48.8766 66.5328 52.0312 62.6562 52.0312H45.1562V0H62.6562C66.5328 0 69.6875 3.15469 69.6875 7.03125Z" fill="#D26628"/>
<path d="M10.3125 26.25V55.1562C10.3125 59.0328 13.4672 62.1875 17.3438 62.1875H72.9688C76.8453 62.1875 80 59.0328 80 55.1562V26.25H10.3125Z" fill="#FF6A4D"/>
<path d="M80 26.25V55.1562C80 59.0328 76.8453 62.1875 72.9688 62.1875H45.1562V26.25H80Z" fill="#E64D2E"/>
<path d="M27.6562 52.3438H22.6562C21.3619 52.3438 20.3125 51.2944 20.3125 50C20.3125 48.7056 21.3619 47.6562 22.6562 47.6562H27.6562C28.9506 47.6562 30 48.7056 30 50C30 51.2944 28.9506 52.3438 27.6562 52.3438Z" fill="#F2F2FC"/>
<path d="M42.6562 52.3438H37.6562C36.3619 52.3438 35.3125 51.2944 35.3125 50C35.3125 48.7056 36.3619 47.6562 37.6562 47.6562H42.6562C43.9506 47.6562 45 48.7056 45 50C45 51.2944 43.9506 52.3438 42.6562 52.3438Z" fill="#F2F2FC"/>
<path d="M80 17.1875V26.25H10.3125V17.1875C10.3125 13.3109 13.4672 10.1562 17.3438 10.1562H72.9688C76.8453 10.1562 80 13.3109 80 17.1875Z" fill="#FB9581"/>
<path d="M80 17.1875V26.25H45.1562V10.1562H72.9688C76.8453 10.1562 80 13.3109 80 17.1875Z" fill="#FF6A4D"/>
<path d="M40 33.5938H22.5C21.2056 33.5938 20.1562 32.5444 20.1562 31.25V21.25C20.1562 19.9556 21.2056 18.9062 22.5 18.9062H40C41.2944 18.9062 42.3438 19.9556 42.3438 21.25V31.25C42.3438 32.5444 41.2944 33.5938 40 33.5938Z" fill="#FFDF40"/>
<path d="M77.6562 39.0625H77.4188C71.6703 39.0625 66.0734 37.0359 61.6562 33.3562C61.2219 32.9937 60.6891 32.8125 60.1562 32.8125C59.6234 32.8125 59.0906 32.9937 58.6562 33.3562C54.2391 37.0359 48.6422 39.0625 42.8937 39.0625H42.6562C41.3625 39.0625 40.3125 40.1125 40.3125 41.4062V54.4562C40.3125 60.2547 42.1578 65.7672 45.65 70.3969C49.1438 75.0266 53.9359 78.3172 59.5125 79.9094C59.7234 79.9703 59.9391 80 60.1562 80C60.3734 80 60.5891 79.9703 60.8 79.9094C66.3766 78.3172 71.1687 75.0266 74.6625 70.3969C78.1547 65.7672 80 60.2547 80 54.4562V41.4062C80 40.1125 78.95 39.0625 77.6562 39.0625Z" fill="#83E470"/>
<path d="M80 41.4062V54.4562C80 60.2547 78.1547 65.7672 74.6625 70.3969C71.1687 75.0266 66.3766 78.3172 60.8 79.9094C60.5891 79.9703 60.3734 80 60.1562 80V32.8125C60.6891 32.8125 61.2219 32.9937 61.6563 33.3562C66.0734 37.0359 71.6703 39.0625 77.4188 39.0625H77.6562C78.95 39.0625 80 40.1125 80 41.4062Z" fill="#01B763"/>
<path d="M71.5017 52.2828L61.8142 61.9703C61.3563 62.4281 60.7563 62.6562 60.1563 62.6562C59.5563 62.6562 58.9564 62.4281 58.4985 61.9703L53.4985 56.9703C52.5845 56.0547 52.5845 54.5703 53.4985 53.6547C54.4142 52.7406 55.8985 52.7406 56.8142 53.6547L60.1563 56.9984L68.186 48.9672C69.1017 48.0531 70.586 48.0531 71.5017 48.9672C72.4157 49.8828 72.4157 51.3672 71.5017 52.2828Z" fill="#F2F2FC"/>
<path d="M71.5015 52.2828L61.8141 61.9703C61.3562 62.4281 60.7562 62.6562 60.1562 62.6562V56.9984L68.1859 48.9672C69.1016 48.0531 70.5859 48.0531 71.5015 48.9672C72.4156 49.8828 72.4156 51.3672 71.5015 52.2828Z" fill="#D6D6F2"/>
</svg>
