<svg width="40" height="40" viewBox="0 0 40 40" fill="none" xmlns="http://www.w3.org/2000/svg">
<circle cx="20" cy="20" r="20" fill="#F6762C"/>
<path d="M18.5938 20C18.5938 20.7766 19.2234 21.4062 20 21.4062C20.7766 21.4062 21.4062 20.7766 21.4062 20C21.4062 19.2234 20.7766 18.5938 20 18.5938C19.2234 18.5938 18.5938 19.2234 18.5938 20Z" fill="white"/>
<path d="M17.625 15.75H22.375C23.4089 15.75 24.25 16.5911 24.25 17.625V22.375C24.25 23.4089 23.4089 24.25 22.375 24.25H17.625C16.5911 24.25 15.75 23.4089 15.75 22.375V17.625C15.75 16.5911 16.5911 15.75 17.625 15.75ZM20 22.3438C21.2924 22.3438 22.3438 21.2924 22.3438 20C22.3438 18.7076 21.2924 17.6562 20 17.6562C18.7076 17.6562 17.6562 18.7076 17.6562 20C17.6562 21.2924 18.7076 22.3438 20 22.3438ZM17.3125 17.7812C17.5714 17.7812 17.7812 17.5714 17.7812 17.3125C17.7812 17.0536 17.5714 16.8438 17.3125 16.8438C17.0536 16.8438 16.8438 17.0536 16.8438 17.3125C16.8438 17.5714 17.0536 17.7812 17.3125 17.7812Z" fill="white"/>
<path d="M16.2188 12H23.7812C26.1074 12 28 13.8926 28 16.2188V23.7812C28 26.1074 26.1074 28 23.7812 28H16.2188C13.8926 28 12 26.1074 12 23.7812V16.2188C12 13.8926 13.8926 12 16.2188 12ZM14.8125 22.375C14.8125 23.9258 16.0742 25.1875 17.625 25.1875H22.375C23.9258 25.1875 25.1875 23.9258 25.1875 22.375V17.625C25.1875 16.0742 23.9258 14.8125 22.375 14.8125H17.625C16.0742 14.8125 14.8125 16.0742 14.8125 17.625V22.375Z" fill="white"/>
</svg>
