<svg width="40" height="40" viewBox="0 0 40 40" fill="none" xmlns="http://www.w3.org/2000/svg">
<circle cx="20" cy="20" r="20" fill="#F6762C"/>
<path d="M28 15.5258C27.405 15.7846 26.771 15.9561 26.11 16.0394C26.79 15.6369 27.309 15.0043 27.553 14.2419C26.919 14.6167 26.219 14.8814 25.473 15.0291C24.871 14.3936 24.013 14 23.077 14C21.261 14 19.799 15.4614 19.799 17.253C19.799 17.5107 19.821 17.7586 19.875 17.9946C17.148 17.8627 14.735 16.5669 13.114 14.5929C12.831 15.0797 12.665 15.6369 12.665 16.2367C12.665 17.363 13.25 18.3614 14.122 18.9394C13.595 18.9295 13.078 18.7778 12.64 18.5389C12.64 18.5488 12.64 18.5617 12.64 18.5746C12.64 20.1549 13.777 21.4676 15.268 21.77C15.001 21.8424 14.71 21.8771 14.408 21.8771C14.198 21.8771 13.986 21.8652 13.787 21.8216C14.212 23.1095 15.418 24.0563 16.852 24.087C15.736 24.9526 14.319 25.4741 12.785 25.4741C12.516 25.4741 12.258 25.4622 12 25.4295C13.453 26.3585 15.175 26.8889 17.032 26.8889C23.068 26.8889 26.368 21.9316 26.368 17.6347C26.368 17.4909 26.363 17.3521 26.356 17.2143C27.007 16.7562 27.554 16.1842 28 15.5258Z" fill="white"/>
</svg>
