<svg width="40" height="40" viewBox="0 0 40 40" fill="none" xmlns="http://www.w3.org/2000/svg">
<circle cx="20" cy="20" r="20" fill="#F6762C"/>
<path d="M20.3235 21.5771C20.1297 21.7711 19.8153 21.7711 19.6213 21.5771L17.3645 19.3203C17.2714 19.2272 17.219 19.1009 17.219 18.9692C17.219 18.8374 17.2714 18.7112 17.3645 18.6179L17.7657 18.2169L16.5873 17.0386L15.622 18.0039C15.2972 18.3288 15.2973 18.8573 15.622 19.1822L19.7594 23.3198C19.9157 23.4762 20.125 23.5622 20.3486 23.5622C20.5722 23.5622 20.7815 23.4761 20.9378 23.3197L21.9031 22.3545L20.7248 21.1761L20.3235 21.5771Z" fill="white"/>
<path d="M27.5107 17.983C27.5107 16.3908 26.8868 14.8901 25.7536 13.7571C24.6206 12.624 23.1198 12 21.5278 12H17.9828C17.9828 12 17.9828 12 17.9826 12C16.3907 12 14.89 12.624 13.7571 13.7569C12.624 14.89 12 16.3908 12 17.9829V20.7694C12 22.0023 12.3761 23.1884 13.0877 24.1993C13.7154 25.0912 14.5597 25.7878 15.544 26.2296V27.8301C15.544 28.6577 16.0074 28.9513 16.4042 28.9514C16.6877 28.9514 16.9713 28.8115 17.2473 28.5356L19.0303 26.7523H21.5279C23.12 26.7523 24.6207 26.1283 25.7538 24.9952C26.8868 23.8622 27.5108 22.3615 27.5108 20.7694L27.5107 17.983ZM22.9568 22.7057L21.6402 24.0222C21.2962 24.3662 20.8376 24.5554 20.3487 24.5554C19.8598 24.5554 19.4012 24.3661 19.0572 24.0222L14.9197 19.8845C14.2078 19.1723 14.2078 18.0137 14.9197 17.3016L16.2363 15.9851C16.3294 15.8919 16.4556 15.8396 16.5874 15.8396C16.7191 15.8396 16.8454 15.8919 16.9386 15.9851L18.8193 17.8658C18.9124 17.959 18.9646 18.0853 18.9646 18.217C18.9646 18.3486 18.9124 18.475 18.8191 18.5681L18.4181 18.9692L19.9726 20.5237L20.3738 20.1225C20.5678 19.9286 20.8822 19.9286 21.0761 20.1226L22.9568 22.0033C23.05 22.0965 23.1023 22.2228 23.1023 22.3545C23.1023 22.4863 23.05 22.6126 22.9568 22.7057ZM19.3793 16.8213C19.3793 16.5471 19.6016 16.3246 19.8759 16.3246C21.5966 16.3246 22.9966 17.7245 22.9966 19.4451C22.9966 19.7194 22.7743 19.9417 22.5 19.9417C22.2258 19.9417 22.0033 19.7194 22.0033 19.4451C22.0033 18.2722 21.049 17.3179 19.8759 17.3179C19.6016 17.3179 19.3793 17.0956 19.3793 16.8213ZM24.6276 19.942C24.3532 19.942 24.1309 19.7195 24.1309 19.4453C24.1311 18.3087 23.6884 17.2402 22.8847 16.4364C22.0809 15.6327 21.0124 15.19 19.8757 15.19C19.6016 15.19 19.3791 14.9677 19.3791 14.6934C19.3791 14.4192 19.6016 14.1968 19.8757 14.1968C21.2777 14.1968 22.5957 14.7428 23.587 15.7341C24.5784 16.7254 25.1243 18.0434 25.1242 19.4453C25.1242 19.7195 24.9019 19.942 24.6276 19.942Z" fill="white"/>
</svg>
